<svg width="127" height="18" viewBox="0 0 127 18" fill="none" xmlns="http://www.w3.org/2000/svg">
<g clip-path="url(#clip0)">
<path d="M119.503 17.8069C117.343 17.8069 115.882 15.4526 116.94 13.5304C117.715 12.0999 118.639 10.7589 119.533 9.4029C119.771 9.03038 119.757 8.77707 119.518 8.41946C118.714 7.2125 117.939 5.97575 117.164 4.75389C116.046 2.99562 116.642 0.939325 118.55 0.194292C119.771 -0.282529 121.157 0.0899877 121.917 1.25224C123.199 3.20423 124.45 5.20091 125.702 7.1678C126 7.64462 126.298 8.12144 126.611 8.59827C126.745 8.80687 126.775 8.98568 126.626 9.20919C125.061 11.6529 123.512 14.1115 121.932 16.5552C121.351 17.4195 120.517 17.8367 119.503 17.8069Z" fill="#F1C34E"/>
<path d="M110.28 17.9993C108.119 17.9993 106.659 15.645 107.717 13.7228C108.492 12.2923 109.415 10.9512 110.309 9.59528C110.548 9.22277 110.533 8.96946 110.295 8.61184C109.49 7.40489 108.715 6.16813 107.94 4.94628C106.823 3.188 107.419 1.13171 109.326 0.386675C110.548 -0.0901459 111.934 0.282371 112.694 1.44462C113.975 3.39661 115.227 5.3933 116.478 7.36019C116.776 7.83701 117.074 8.31383 117.387 8.79065C117.521 8.99926 117.551 9.17807 117.402 9.40158C115.838 11.8453 114.288 14.3039 112.694 16.7476C112.142 17.5969 111.308 18.0142 110.28 17.9993Z" fill="#F1C34E"/>
<path d="M43.033 16.7788C41.6622 16.7788 40.4403 16.7937 39.2036 16.7639C39.0396 16.7639 38.831 16.5106 38.7267 16.3169C37.9668 15.0504 37.2069 13.7689 36.4767 12.4874C36.2681 12.1149 36.0148 11.9659 35.5976 11.9957C35.1357 12.0255 34.6588 12.0404 34.182 11.9957C33.6754 11.951 33.4966 12.1 33.5115 12.6365C33.5562 13.7838 33.5264 14.9312 33.5264 16.0934C33.5264 16.302 33.5264 16.5106 33.5264 16.7937C32.3492 16.7937 31.2317 16.8086 30.129 16.7788C30.0247 16.7788 29.8906 16.5851 29.8161 16.4659C29.7714 16.3765 29.8012 16.2424 29.8012 16.1232C29.8012 11.8318 29.8012 7.54043 29.8012 3.24904C29.8012 1.72917 30.3228 1.20765 31.8426 1.20765C33.6307 1.20765 35.4039 1.17784 37.192 1.23745C40.336 1.35665 42.7052 3.91957 42.5115 6.9742C42.4072 8.64307 41.7069 10.0139 40.2913 10.9676C39.9337 11.206 39.889 11.3997 40.1125 11.7573C40.9767 13.1878 41.8112 14.648 42.6605 16.0934C42.7648 16.2722 42.8542 16.4659 43.033 16.7788ZM33.5264 6.66129C33.5264 7.28712 33.5115 7.91294 33.5413 8.52387C33.5562 8.67288 33.7499 8.92619 33.8691 8.92619C34.8675 8.94109 35.8658 8.98579 36.8492 8.86659C37.9966 8.73248 38.682 7.83844 38.682 6.66129C38.682 5.49904 37.9966 4.6199 36.8194 4.48579C35.8509 4.36659 34.8675 4.39639 33.8989 4.41129C33.7648 4.41129 33.5413 4.6795 33.5264 4.84341C33.5115 5.45433 33.5264 6.05036 33.5264 6.66129Z" fill="#008CA9"/>
<path d="M84.263 1.23743C85.5147 1.23743 86.7067 1.23743 87.9286 1.23743C87.9286 6.40796 87.9286 11.5636 87.9286 16.749C86.7216 16.749 85.5445 16.749 84.2928 16.749C84.2779 16.5255 84.263 16.3318 84.263 16.1232C84.263 14.499 84.2481 12.8897 84.263 11.2656C84.263 10.8335 84.1289 10.6844 83.6968 10.6844C82.1173 10.6993 80.5229 10.6993 78.9435 10.6844C78.5412 10.6844 78.3922 10.8037 78.4071 11.2209C78.422 12.845 78.422 14.4543 78.422 16.0785C78.422 16.2871 78.422 16.4957 78.422 16.7788C77.2299 16.7788 76.0975 16.7788 74.965 16.7639C74.8756 16.7639 74.7415 16.5851 74.6968 16.4659C74.6521 16.3467 74.6819 16.1977 74.6819 16.0636C74.6819 11.3401 74.6968 6.61657 74.667 1.89306C74.667 1.34173 74.7862 1.13312 75.3673 1.16293C76.3508 1.20763 77.3491 1.17783 78.3922 1.17783C78.3922 3.21922 78.3922 5.1861 78.3922 7.19769C78.6306 7.21259 78.8094 7.2573 79.0031 7.2573C80.5528 7.2573 82.1024 7.24239 83.6521 7.2722C84.1587 7.2871 84.2779 7.10829 84.2779 6.63147C84.2481 5.052 84.263 3.47253 84.263 1.89306C84.263 1.68445 84.263 1.47584 84.263 1.23743Z" fill="#008CA9"/>
<path d="M9.59628 1.22146C10.8628 1.22146 12.04 1.22146 13.2618 1.22146C13.2618 6.40689 13.2618 11.5625 13.2618 16.7777C12.1145 16.7777 11.0118 16.7926 9.89429 16.7628C9.78999 16.7628 9.61118 16.4499 9.59628 16.2711C9.56648 14.647 9.55158 13.0377 9.59628 11.4135C9.61118 10.8026 9.40257 10.6536 8.82144 10.6685C7.37608 10.6983 5.91581 10.6983 4.47045 10.6685C3.90423 10.6536 3.68072 10.7728 3.71052 11.3986C3.75522 12.993 3.71052 14.6023 3.74032 16.1966C3.75522 16.6734 3.59131 16.7926 3.12939 16.7777C2.25025 16.7479 1.37111 16.7479 0.491974 16.7777C0.104557 16.7926 -0.0146484 16.6585 -0.0146484 16.2711C0.000252224 11.3986 0.000252224 6.51119 -0.0146484 1.63868C0.000252224 1.29596 0.134358 1.17676 0.477073 1.19166C1.37111 1.20656 2.28005 1.22146 3.17409 1.19166C3.60621 1.17676 3.75522 1.29596 3.74032 1.74298C3.71052 3.33735 3.72542 4.94662 3.72542 6.54099C3.72542 6.7496 3.72542 6.95821 3.72542 7.21152C3.94893 7.24133 4.11283 7.27113 4.27674 7.27113C5.84131 7.27113 7.40588 7.25623 8.97045 7.28603C9.41747 7.28603 9.58138 7.16682 9.58138 6.69C9.58138 4.88702 9.59628 3.09894 9.59628 1.22146Z" fill="#008CA9"/>
<path d="M102.114 1.25177C102.114 2.25012 102.129 3.24846 102.084 4.2319C102.084 4.33621 101.757 4.51502 101.578 4.51502C99.7748 4.52992 97.9718 4.52992 96.1688 4.52992C95.692 4.52992 95.2301 4.55972 94.7532 4.52992C94.3062 4.50012 94.1721 4.69383 94.187 5.11104C94.2168 5.66237 94.2168 6.19879 94.187 6.75012C94.1572 7.21204 94.3211 7.36104 94.783 7.36104C96.5413 7.34614 98.3145 7.37594 100.073 7.34614C100.669 7.33124 100.877 7.49515 100.833 8.09118C100.773 8.74681 100.803 9.41733 100.833 10.073C100.848 10.4902 100.699 10.6094 100.296 10.6094C98.4784 10.5945 96.6456 10.6243 94.8277 10.5945C94.336 10.5945 94.1572 10.7435 94.187 11.2352C94.2168 11.7269 94.2317 12.2187 94.187 12.6955C94.1423 13.2468 94.3211 13.4405 94.9022 13.4256C97.0777 13.3958 99.2532 13.4256 101.429 13.3958C101.98 13.3958 102.144 13.5597 102.114 14.0961C102.069 14.8412 102.084 15.5862 102.114 16.3163C102.129 16.674 101.995 16.7932 101.637 16.7783C98.4784 16.7634 95.3344 16.7783 92.1754 16.7634C91.1324 16.7634 90.4916 16.1226 90.4916 15.0796C90.4767 10.9968 90.4767 6.92892 90.4916 2.84614C90.4916 1.818 91.1175 1.19217 92.1307 1.19217C95.3195 1.17727 98.5231 1.19217 101.712 1.19217C101.831 1.19217 101.95 1.22197 102.114 1.25177Z" fill="#008CA9"/>
<path d="M27.4618 4.52959C26.9105 4.52959 26.4486 4.52959 25.9866 4.52959C24.0495 4.52959 22.1125 4.54449 20.1754 4.51469C19.7284 4.51469 19.5346 4.63389 19.5645 5.09581C19.5943 5.64714 19.5943 6.18356 19.5645 6.73489C19.5346 7.19681 19.6986 7.34581 20.1605 7.34581C21.9635 7.33091 23.7664 7.34581 25.5694 7.33091C26.0462 7.33091 26.2399 7.45012 26.2101 7.95674C26.1654 8.64217 26.1803 9.3276 26.2101 9.99813C26.2399 10.4601 26.0909 10.6091 25.6141 10.6091C23.826 10.5793 22.0529 10.624 20.2648 10.5942C19.7433 10.5793 19.5048 10.7134 19.5495 11.2796C19.5943 11.8011 19.5794 12.3375 19.5495 12.8591C19.5197 13.2912 19.6986 13.4402 20.1307 13.4253C22.3509 13.4104 24.5562 13.4402 26.7764 13.4104C27.3575 13.3955 27.5214 13.5892 27.4916 14.1405C27.4469 14.8855 27.4767 15.6157 27.4916 16.3607C27.4916 16.6885 27.3724 16.7928 27.0446 16.7928C23.8558 16.7779 20.6671 16.7928 17.4635 16.7779C16.5247 16.7779 15.8691 16.1223 15.8691 15.1836C15.8542 11.0412 15.8542 6.91369 15.8691 2.77131C15.8691 1.83257 16.4949 1.20674 17.4039 1.19184C20.6224 1.17694 23.826 1.17694 27.0446 1.19184C27.1936 1.19184 27.4618 1.34085 27.4618 1.44515C27.4767 2.4584 27.4618 3.45674 27.4618 4.52959Z" fill="#008CA9"/>
<path d="M60.1987 15.2576C60.6607 14.2294 61.0779 13.2758 61.5249 12.2775C62.2401 12.5457 62.8958 12.8288 63.5812 13.0374C64.8626 13.4248 66.1441 13.8122 67.5001 13.4993C67.8577 13.4099 68.2451 13.2162 68.4984 12.9629C68.9752 12.4712 68.7666 11.6218 68.0514 11.3387C66.9934 10.9066 65.8759 10.5788 64.803 10.1765C64.058 9.89335 63.313 9.59534 62.6126 9.22282C59.6623 7.62845 59.9305 3.53077 62.7765 1.9513C64.1772 1.17647 65.6822 0.952956 67.2616 1.05726C69.1093 1.19137 70.8676 1.71289 72.5961 2.60693C72.1938 3.53077 71.8212 4.43971 71.404 5.31885C71.3593 5.40825 71.0017 5.39335 70.808 5.34865C69.6607 5.05064 68.5282 4.67812 67.351 4.45461C66.6954 4.33541 65.9951 4.43971 65.3246 4.54402C64.8179 4.61852 64.4305 4.94633 64.3858 5.52746C64.3411 6.07878 64.6391 6.4215 65.1159 6.60031C66.457 7.09203 67.813 7.50925 69.1391 8.03077C69.8395 8.31388 70.5547 8.6566 71.1209 9.13342C73.5497 11.1599 72.909 14.8702 69.914 16.241C68.1408 17.0606 66.2782 17.1053 64.4007 16.7328C62.9405 16.4347 61.5398 16.0026 60.1987 15.2576Z" fill="#008CA9"/>
<path d="M58.545 6.98847C57.9341 4.23185 56.3546 2.25006 53.6129 1.40072C50.7669 0.506682 48.1145 0.968602 45.939 3.0845C43.7486 5.21529 43.242 7.92721 43.8082 10.8477C44.896 16.5547 51.05 18.4173 55.2371 15.8097C57.7404 14.26 58.7089 11.8461 58.7834 8.71695C58.7387 8.34443 58.694 7.659 58.545 6.98847ZM53.2255 12.7401C51.3331 14.0514 48.7702 13.2914 47.8761 11.1756C47.2652 9.73019 47.2652 8.25503 47.8761 6.80966C48.4871 5.3494 49.8728 4.51496 51.4225 4.63417C53.0318 4.75337 54.2685 5.75171 54.6857 7.28648C54.8347 7.85271 54.8943 8.43383 54.9986 9.00006C54.9092 10.4901 54.5218 11.8461 53.2255 12.7401Z" fill="#008CA9"/>
</g>
<defs>
<clipPath id="clip0">
<rect width="126.715" height="18" fill="white"/>
</clipPath>
</defs>
</svg>
